<svg xmlns="http://www.w3.org/2000/svg" version="1.1" xmlns:xlink="http://www.w3.org/1999/xlink" xmlns:svgjs="http://svgjs.dev/svgjs" width="1500" height="1500" viewBox="0 0 1500 1500"><rect width="1500" height="1500" fill="#000000"></rect><g transform="matrix(0.6666666666666666,0,0,0.6666666666666666,249.30823256059563,35.36881720430114)"><svg viewBox="0 0 174 248" data-background-color="#000000" preserveAspectRatio="xMidYMid meet" height="2137" width="1500" xmlns="http://www.w3.org/2000/svg" xmlns:xlink="http://www.w3.org/1999/xlink"><g id="tight-bounds" transform="matrix(1,0,0,1,0.1203675344563635,0.4000000000000057)"><svg viewBox="0 0 173.7592649310873 247.2" height="247.2" width="173.7592649310873"><g><svg viewBox="0 0 173.7592649310873 247.2" height="247.2" width="173.7592649310873"><g><svg viewBox="0 0 173.7592649310873 247.2" height="247.2" width="173.7592649310873"><g id="textblocktransform"><svg viewBox="0 0 173.7592649310873 247.2" height="247.2" width="173.7592649310873" id="textblock"><g><svg viewBox="0 0 173.7592649310873 247.2" height="247.2" width="173.7592649310873"><g transform="matrix(1,0,0,1,0,0)"><svg width="173.7592649310873" viewBox="1.9 -32.3 22.950000000000003 32.65" height="247.2" data-palette-color="url(#4cba2428-0aec-4085-b972-4a779e93294d)"></svg></g></svg></g></svg></g></svg></g><g></g></svg></g><defs></defs><mask id="a3ae56f0-b444-454b-80ef-72d5f23b6d90"><g id="SvgjsG6071"><svg viewBox="0 0 173.7592649310873 247.2" height="247.2" width="173.7592649310873"><g><svg viewBox="0 0 173.7592649310873 247.2" height="247.2" width="173.7592649310873"><g><svg viewBox="0 0 173.7592649310873 247.2" height="247.2" width="173.7592649310873"><g id="SvgjsG6070"><svg viewBox="0 0 173.7592649310873 247.2" height="247.2" width="173.7592649310873" id="SvgjsSvg6069"><g><svg viewBox="0 0 173.7592649310873 247.2" height="247.2" width="173.7592649310873"><g transform="matrix(1,0,0,1,0,0)"><svg width="173.7592649310873" viewBox="1.9 -32.3 22.950000000000003 32.65" height="247.2" data-palette-color="url(#4cba2428-0aec-4085-b972-4a779e93294d)"><path d="M16.1-32.3Q21.15-32.3 24.85-29.9L24.85-29.9 24.05-26.25 23.6-26.15Q20.25-28.95 15.9-28.95L15.9-28.95Q11.15-28.95 8.6-25.68 6.05-22.4 6.05-16.1L6.05-16.1Q6.05-9.75 8.6-6.4 11.15-3.05 15.8-3.05L15.8-3.05Q18-3.05 20.18-3.85 22.35-4.65 24.15-6.1L24.15-6.1 24.65-5.85 24.3-2.05Q19.95 0.35 15.45 0.35L15.45 0.35Q9 0.35 5.45-3.83 1.9-8 1.9-15.75L1.9-15.75Q1.9-23.7 5.6-28 9.3-32.3 16.1-32.3L16.1-32.3Z" opacity="1" transform="matrix(1,0,0,1,0,0)" fill="white" class="wordmark-text-0" id="SvgjsPath6068"></path></svg></g></svg></g></svg></g></svg></g><g></g></svg></g><defs><mask></mask></defs></svg><rect width="173.7592649310873" height="247.2" fill="black" stroke="none" visibility="hidden"></rect></g></mask><linearGradient x1="0" x2="1" y1="0.578" y2="0.595" id="4cba2428-0aec-4085-b972-4a779e93294d"><stop stop-color="#6ee2f5" offset="0"></stop><stop stop-color="#6454f0" offset="1"></stop></linearGradient><rect width="173.7592649310873" height="247.2" fill="url(#4cba2428-0aec-4085-b972-4a779e93294d)" mask="url(#a3ae56f0-b444-454b-80ef-72d5f23b6d90)" data-fill-palette-color="primary"></rect></svg><rect width="173.7592649310873" height="247.2" fill="none" stroke="none" visibility="hidden"></rect></g></svg></g></svg>