<svg width="370" height="289" viewBox="0 0 370 289" fill="none" xmlns="http://www.w3.org/2000/svg">
<g clip-path="url(#clip0_116_3)">
<path d="M135.652 230.71C132.554 234.186 129.682 237.419 126.802 240.636C119.887 248.339 113.041 256.097 105.987 263.698C104.72 265.06 102.629 266.524 100.894 266.548C99.8092 266.563 98.4904 264.066 97.5967 262.547C93.5968 255.76 89.9007 248.832 85.7012 242.155C83.8271 239.18 84.2089 237.427 86.9246 235.102C95.8267 227.477 104.425 219.562 113.197 211.812C115.219 210.028 115.314 208.517 113.613 206.395C109.64 201.44 105.917 196.328 102.143 191.247C97.3451 184.797 96.8245 177.681 99.358 170.596C102.499 161.797 105.926 153.03 110.091 144.599C115.514 133.631 133.083 129.709 143.903 136.716C145.916 138.023 147.738 140.058 148.71 142.117C154.107 153.609 159.659 165.07 164.284 176.82C167.902 186.003 164.267 194.52 158.792 202.426C154.48 208.65 154.228 208.838 159.764 214.263C170.722 224.987 181.845 235.579 193.185 245.975C196.439 248.958 200.725 251.016 204.413 253.647C207.137 255.596 209.193 255.009 211.449 252.958C217.87 247.134 224.334 241.333 230.954 235.696C235.57 231.767 240.377 227.993 245.296 224.361C253.469 218.318 263.17 216.541 273.382 217.253C283.022 217.926 292.626 219.116 302.223 220.236C307.212 220.815 311.047 223.242 313.884 226.999C317.866 232.275 322.126 237.395 325.84 242.812C327.575 245.341 329.77 246.343 332.746 246.867C339.688 248.096 346.62 249.427 353.527 250.821C358.472 251.823 359.296 253.803 355.505 256.755C352.668 258.962 349.032 261.491 345.579 261.702C331.766 262.54 317.884 262.97 304.053 262.641C297.945 262.5 294.067 257.71 291.091 253.138C287.872 248.198 285.061 243.039 282.093 237.967C280.531 235.297 279.022 235.172 276.506 237.34C268.575 244.182 260.628 251.024 252.289 257.451C244.351 263.573 234.919 266.681 224.36 266.665C214.261 266.649 204.144 266.282 194.053 266.665C179.676 267.213 168.796 261.224 159.234 252.496C152.423 246.28 145.812 239.9 139.088 233.614C138.116 232.69 137.031 231.868 135.652 230.71ZM115.383 162.04C115.201 162.51 115.01 162.98 114.828 163.441C120.095 172.311 127.687 179.505 135.869 187.028C139.174 181.071 142.298 175.818 145.031 170.401C147.356 165.79 146.575 164.013 140.936 163.402C132.476 162.486 123.904 162.447 115.383 162.04Z" fill="#BD2426"/>
<path d="M265.131 45.0856C269.842 96.1182 256.107 142.532 226 185.102C213.991 202.074 200.118 217.746 183.693 231.414C183.19 231.156 182.695 230.898 182.192 230.639C183.815 226.874 185.324 223.062 187.086 219.351C196.751 199.005 196.482 178.941 184.361 159.527C176.292 146.611 164.735 136.426 151.313 127.964C149.178 126.617 147.009 125.333 144.875 123.995C142.619 122.578 141.742 120.949 144.241 118.758C162.219 123.595 180.57 127.118 200.777 126.077C196.881 124.887 193.914 124.347 191.363 123.126C184.613 119.885 182.773 112.377 187.606 107.109C193.168 101.042 200.335 98.3414 209.202 100.009C216.247 101.332 219.839 106.068 221.427 111.532C222.711 115.971 218.833 119.266 214.911 121.764C213.306 122.781 211.449 123.494 209.835 124.519C221.696 123.165 230.72 117.544 237.73 109.105C251.248 92.8146 258.857 74.5434 260.228 54.1664C260.454 50.7924 260.133 46.9174 265.131 45.0856ZM260.558 82.8805C260.402 82.8414 260.237 82.8022 260.081 82.7631C254.814 91.5934 249.539 100.416 244.272 109.246C246.042 106.53 248.272 107.219 250.944 109.536C254.294 100.228 257.426 91.5543 260.558 82.8805Z" fill="#F89822"/>
<path d="M143.772 42.1031C155.902 52.1076 164.882 63.7952 169.29 78.8412C168.492 79.3031 167.086 80.7513 165.481 80.9627C147.807 83.319 130.862 82.5753 116.641 70.9659C107.765 63.7248 106.073 54.8005 110.316 45.3205C114.238 36.5606 110.845 28.2783 102.551 24.2233C101.284 23.6048 99.9563 22.9472 98.9845 22.0235C98.2123 21.2955 97.3013 19.8707 97.6223 19.2288C98.0127 18.446 99.6786 17.6632 100.702 17.7414C117.5 19.0723 134.098 21.5538 148.709 29.6013C158.627 35.0654 165.394 43.4495 170.409 52.8983C173.767 59.2235 175.363 65.9245 175.303 72.9073C175.294 74.0972 174.184 75.2872 173.585 76.4771C172.457 75.7099 170.869 75.1619 170.27 74.1442C166.696 68.0695 163.945 61.525 159.746 55.8495C156.362 51.27 151.356 47.6533 146.965 43.7C146.141 42.9642 144.857 42.6276 143.772 42.1031Z" fill="#A6CE39"/>
<path d="M245.339 38.6899C244.376 39.2379 243.387 39.7546 242.459 40.3495C236.203 44.3341 234.928 48.1073 237.496 54.6205C239.214 58.973 238.763 63.0594 235.37 66.7152C226.711 76.0308 215.249 77.7609 202.781 76.1796C198.452 75.6316 196.326 72.1558 196.708 68.226C198.079 54.276 207.831 46.3773 221.037 41.3046C228.42 38.4707 236.212 36.5841 244.385 37.3278C244.706 37.774 245.027 38.228 245.339 38.6899Z" fill="#A6CE39"/>
<path d="M62.2485 93.0886C63.1335 88.5248 64.9296 84.9629 68.4956 82.8023C72.8512 80.1641 77.6232 77.8548 82.5688 76.3753C84.816 75.702 88.3387 76.7901 90.5425 78.0975C95.6009 81.0957 98.8893 85.7301 98.2993 91.2177C97.6312 97.4647 92.3212 101.175 86.4559 103.704C78.1872 107.266 72.3306 106.553 67.2115 101.293C64.9903 99.0068 63.871 95.852 62.2485 93.0886Z" fill="#A6CE39"/>
<path d="M215.362 13.8586C213.557 15.2442 211.779 16.6533 209.939 18.0076C207.657 19.6907 206.686 21.3972 208.577 24.0119C210.729 26.9788 210.469 30.1179 208.317 33.1397C203.562 39.825 192.352 43.5121 184.231 40.9053C181.541 40.0442 180.04 38.2593 180.301 35.5038C181.142 26.5795 187.346 20.998 195.58 17.5535C201.532 15.0642 208.265 14.1013 214.651 12.4573C214.885 12.9192 215.128 13.3889 215.362 13.8586Z" fill="#A6CE39"/>
<path d="M115.383 162.04C123.904 162.455 132.476 162.486 140.936 163.41C146.575 164.021 147.356 165.798 145.031 170.409C142.298 175.818 139.174 181.071 135.869 187.036C127.678 179.513 120.095 172.319 114.828 163.449C115.01 162.972 115.193 162.502 115.383 162.04Z" fill="white"/>
<path d="M55.4807 208.478C55.1683 213.221 54.856 217.958 54.5436 222.702C54.0491 222.686 53.5545 222.67 53.0513 222.655C53.3029 217.887 53.5632 213.112 53.8148 208.344C54.3701 208.391 54.9254 208.431 55.4807 208.478Z" fill="white"/>
<path d="M260.558 82.8805C257.426 91.5543 254.302 100.228 250.945 109.536C248.272 107.219 246.042 106.53 244.272 109.246C249.539 100.416 254.814 91.5934 260.081 82.7631C260.237 82.8023 260.393 82.8414 260.558 82.8805Z" fill="white"/>
<path d="M140.354 298.174C141.404 294.894 142.289 292.099 143.295 288.944C143.773 292.138 144.206 295.004 144.684 298.174C143.59 298.174 142.046 298.174 140.354 298.174Z" fill="white"/>
<path d="M337.535 290.502C335.488 290.721 333.44 290.941 330.898 291.207C330.594 288.921 330.317 286.886 329.917 283.919C333.301 286.064 335.731 287.598 338.16 289.14C337.961 289.602 337.744 290.048 337.535 290.502Z" fill="white"/>
<path d="M176.197 86.5912C175.347 86.5912 174.488 86.5364 173.646 86.599C151.165 88.3447 129.648 93.6131 108.625 100.807C101.787 103.148 94.907 105.575 87.827 107.109C74.3177 110.045 61.3291 104.995 53.9974 94.3725C46.6051 83.6634 36.8614 75.2558 24.5842 69.2906C23.543 68.7818 21.8511 69.3533 20.4629 69.4237C20.7492 70.6058 20.6191 72.1088 21.3826 72.923C28.1155 80.0545 35.4472 86.7555 41.7289 94.1924C48.0194 101.637 51.9324 111.454 40.063 118.64C37.9113 119.94 36.4883 123.987 36.8874 126.484C37.3213 129.247 39.7594 132.16 42.1714 134.187C47.4554 138.626 50.1972 143.91 49.3816 150.227C48.4532 157.445 46.9174 164.616 45.2429 171.732C42.7788 182.198 40.011 192.594 40.7919 203.444C41.3992 211.938 43.5249 220.15 49.4597 226.772C52.3749 230.029 53.928 233.137 54.6482 237.09C56.9821 249.967 62.0752 261.984 69.1119 273.249C69.216 273.327 69.3027 273.405 69.3548 273.484C70.4394 275.112 70.8905 275.175 71.7235 277.28C72.5738 278.541 73.346 279.691 73.7798 280.913C74.7863 279.911 76.9554 277.766 78.9857 275.903C76.9554 275.691 76.3741 273.679 76.0357 271.55C74.3872 261.154 75.0032 250.774 77.5801 240.597C79.6972 232.244 82.7426 224.087 85.172 215.797C85.6666 214.106 86.031 211.734 85.1113 210.474C76.5216 198.637 69.2507 186.504 67.2638 172.029C65.6673 160.435 66.6651 149.335 72.2267 138.939C77.5107 129.067 85.5277 121.098 95.7747 114.914C114.854 103.391 136.207 97.2376 158.254 92.525C164.362 91.2177 170.401 89.6207 176.475 88.1568C176.388 87.6323 176.292 87.1078 176.197 86.5912ZM54.5441 222.702C54.0495 222.686 53.5549 222.67 53.0517 222.655C53.3033 217.887 53.5636 213.112 53.8152 208.344C54.3705 208.391 54.9171 208.431 55.4724 208.478C55.1688 213.214 54.8564 217.958 54.5441 222.702Z" fill="#A6CE39"/>
</g>
<defs>
<clipPath id="clip0_116_3">
<rect width="370" height="289" fill="white"/>
</clipPath>
</defs>
</svg>
